<svg xmlns="http://www.w3.org/2000/svg" width="24" height="24" fill="none"><path stroke="#6D4AFF" stroke-linejoin="round" d="M22 6.768c-.71.31-1.426.538-2.216.613a4.1 4.1 0 0 0 1.739-2.072c-.79.458-1.58.767-2.45.921C18.28 5.463 17.25 5 16.143 5c-2.136 0-3.88 1.694-3.88 3.771 0 .304 0 .613.079.847-4.082 0-6.881-2.312-8.78-4.618-.397.538-.556 1.23-.556 1.923 0 1.305.716 2.46 1.744 3.153-.636-.074-1.267-.229-1.744-.458v.075a3.758 3.758 0 0 0 3.091 3.691c-.318.075-.636.155-1.034.155-.233 0-.472 0-.71-.075.477 1.54 2.688 3.308 4.426 3.308-1.346.996-2.597 1.864-5.1 1.864H3C4.739 19.712 6.801 20 8.938 20c7.204 0 11.085-5.769 11.085-10.77V8.77c.79-.543 1.426-1.23 1.977-2.003Z"/></svg>